<svg height="50" viewBox="0 0 50 50" width="50" xmlns="http://www.w3.org/2000/svg"><path d="m19.7891 1.0046.067.0142.2585.0582.9586.2435 3.23 1.0603 2.0125.8538 2.1049 1.094 2.0679 1.3529 1.9014 1.6302.9742 1.3804.6043 1.6764.3083 1.8244.0863 1.8244-.1189 1.8419.9877.7253 1.2158 1.0967 2.5688 2.7796 2.2472 2.8428 1.9471 2.8725 1.6685 2.8689 1.4114 2.8317 1.1758 2.7611 1.7309 5.1763 1.0468 4.4922.5346 3.5402.1946 2.3205.0236.6191.0027.1597.0003.0405v.0136h-.0136l-.0405-.0003-.1597-.0027-.6191-.0236-2.3205-.1946-3.5402-.5346-4.4922-1.0468-5.1763-1.7309-2.7611-1.1758-2.8317-1.4114-2.8689-1.6685-2.8725-1.9471-2.8428-2.2472-2.7796-2.5688-1.0967-1.2158-.7253-.9877-1.8419.1189-1.8244-.0863-1.8244-.3083-1.6764-.6043-1.3804-.9742-1.6302-1.9014-1.3529-2.0679-1.094-2.1049-.8538-2.0125-1.0603-3.23-.2435-.9586-.0582-.2585-.0142-.067-.0046-.0227 10.4257 1.4893v-3.5745l6.2555-6.2555h3.5745l-1.4893-10.4257zm13.7327 29.2722-.783.243-.7084.3843-.6171.5092-.5092.6171-.3843.7084-.243.783-.0846.8407.0846.8407.243.7829.3843.7084.5092.6172.6171.5091.7084.3844.783.2429.8407.0847.8407-.0847.7829-.2429.7084-.3844.6172-.5091.5091-.6172.3844-.7084.2429-.7829.0847-.8407-.0847-.8407-.2429-.783-.3844-.7084-.5091-.6171-.6172-.5092-.7084-.3843-.7829-.243-.8407-.0846zm-24.8193-24.9574 1.4984.2538 1.5201.4345 1.4283.6603 1.2228.9315.766 1.0173.458 1.1471-.955.9529-.2711-.4066-.8022-.6274-.8498-.3893-.8499-.1987-.8023-.0558-1.271.1267-.3734.0873-.1003.0287-.0259.0081-.0088.0028-.0029.0088-.0081.026-.0288.1003-.0874.3733-.1272 1.271.0556.8023.1988.8499.3895.8499.628.8021.4066.2711-.9529.955-1.1471-.4579-1.0173-.7661-.9207-1.212-.6553-1.4232-.4337-1.5194-.2563-1.5008-.156-2.4863.0123-.7556.0095-.2056.0032-.0535.0012-.0183.0181-.0013.0532-.0035.2045-.0106.7519-.016z" fill="#f0f0f0" transform="matrix(1 0 0 -1 -1 51)"/></svg>