<svg height="50" viewBox="0 0 20 20" width="50" xmlns="http://www.w3.org/2000/svg"><path d="m2 2h40v40h-40z" opacity="0" transform="matrix(.5 0 0 -.5 -1 21)"/><path d="m7.919034 38c-1.236157 0-2.375811-.705387-2.927557-1.812145l-2.991477-5.982954v-.386719-4.909091-19.636364c0-1.808181 1.464545-3.272727 3.272727-3.272727h29.454546c1.808181 0 3.272727 1.464546 3.272727 3.272727v19.636364 4.909091.386719l-2.994673 5.98615c-.552528 1.10435-1.68976 1.808949-2.924361 1.808949zm.003196-3.272727h24.15554l2.454545-4.909091h-29.06463zm7.168679-8.181818h9.818182c.903273 0 1.636364-.733091 1.636364-1.636364s-.733091-1.636364-1.636364-1.636364h-9.818182c-.903273 0-1.636364.733091-1.636364 1.636364s.733091 1.636364 1.636364 1.636364z" fill="#f0f0f0" transform="matrix(.5 0 0 -.5 0 20)"/></svg>