<svg height="50" viewBox="0 0 50 50" width="50" xmlns="http://www.w3.org/2000/svg"><path d="m26.039228 51c-.873636 0-1.747269-.171607-2.4961-.546022l-20.982839-9.51638c-1.99688-.998441-1.99688-3.759751 0-4.758191l8.50234-3.978159-8.268331-3.74415c-1.996879-.998439-1.996879-3.759751 0-4.75819l8.50234-3.900156-8.736349-4.056162c-1.99688-.998439-1.99688-3.759752 0-4.758191l20.74883-9.51638c.74883-.249611 1.747269-.468019 2.4961-.468019.74883 0 1.747269.218408 2.4961.468019l20.670827 9.51638c2.496099.998439 2.542899 4.009363.546021 4.758191l-8.736349 4.056162 8.50234 3.900156c1.996878.998439 1.996878 3.759751 0 4.75819l-8.346334 3.822153 8.346334 3.900156c1.996878.99844 1.996878 3.75975 0 4.758191l-20.74883 9.51638c-.74883.374415-1.622464.546022-2.4961.546022zm-8.970359-21.528861 6.474259-3.042122c1.497661-.74883 3.494539-.74883 4.9922 0l6.474259 3.042122 7.4883-3.510141-15.99064-7.488299h-.468019-.468019l-15.990639 7.488299zm.23401-12.402496 6.240249-2.808113c.748831-.249611 1.74727-.546021 2.4961-.546021.748831 0 1.74727.29641 2.4961.546021l6.24025 2.808113 7.722309-3.588144-15.99064-7.488299h-.468019-.468019l-15.990639 7.488299z" fill="#f0f0f0" transform="matrix(1 0 0 -1 -1 51)"/></svg>