<svg height="50" viewBox="0 0 50 50" width="50" xmlns="http://www.w3.org/2000/svg"><path d="m28.803213 4.20061.469254.437266.480105.414003.490042.391326.499099.369291.507203.347844.514431.326998.520725.306767 1.056701.555299 1.070971.481658 1.077961.412894 1.077635.348992 1.070038.289958 1.055143.23577 1.032956.186436 1.003471.141992.96671.102385.922655.067655.871319.037763.812662.012762.36057.037308.336044.105205.30427.165817.265218.219175.218908.265262.165356.304108.104538.335656.036456.359964v26.888431l-.034534.354111-.101435.335365-.165118.308782-.225545.274406-.271107.222967-.304407.163187-.330006.100234-.347927.034114h-.004375l-.820995-.014193-.890758-.043171-.950205-.078698-.999287-.120701-1.038032-.169242-1.06645-.224303-1.08452-.285883-1.092239-.35396-1.089626-.428571-.540604-.244295-.536072-.265396-.530247-.287297-.523122-.310031-.514722-.33357-.505022-.357921-.494026-.383081-.481736-.40907-.468147-.435876-.453297-.463474-.437118-.491905-.419651-.521157-.400916-.551197-.380863-.58208-.106246-.204489-.076951-.221635-.046819-.235583-.015799-.24634v-28.139165zm-3.235596 27.678032-.015827.24634-.046869.235583-.077018.221635-.10626.204489-.380849.58208-.400905.551197-.419637.521157-.437107.491905-.45328.463474-.468148.435864-.481722.40907-.494016.383093-.505016.357921-.514712.333558-.523124.310028-.530245.287297-.536058.265396-.540606.244298-1.089624.428565-1.092239.353954-1.084532.285866-1.06645.224293-1.038062.169225-.9993.120692-.950215.078653-.890788.043162-.821022.014151h-.004213l-.348155-.034114-.330046-.100222-.304338-.163186-.271069-.222983-.225547-.2744-.165116-.308785-.101446-.33535-.034523-.354126v-26.888258l.036456-.360017.104539-.33571.165357-.304122.218933-.265288.265229-.219188.304298-.165832.336087-.10519.360622-.037323.812674-.012747.871306-.037777.922654-.067642.966712-.102398 1.003486-.141978 1.032955-.18645 1.05513-.23577 1.070037-.289944 1.077637-.348993 1.077958-.412907 1.070969-.481657 1.056718-.555287.520725-.30678.514417-.326998.507217-.347844.499082-.369277.490056-.391339.480096-.414003.469255-.437254.457479-.461146zm-21.624595-30.00867.201533.034328 1.751984.36865.976471.178739 1.036369.169078 1.090958.15494 1.140268.136353 1.184245.113275 1.222926.085762 1.256301.053772 1.28437.017304 1.307131-.023598 1.324585-.068978 1.336746-.118821 1.343588-.173141 1.345133-.231909 1.34136-.295141-.391596.357451-.400825.339052-.826396.624732-.854557.556689-.87684.492347-.893292.431735-.903893.374837-.908642.321653-.907548.272171-.900614.22643-.887811.184392-.869173.146067-.84469.111472-.814369.080577-.778166.05341-1.424432.040168-.465827.024735-.452534.070394-.436919.11373-.418999.15474-.39877.193451-.376209.229825-.351355.263899-.324179.295637-.29471.325073-.26291.352187-.2288.376988-.192385.399463-.153663.419616-.112606.437467-.069271.452994-.023601.466197v22.480578h-1.297384l-.360035-.036477-.33558-.10463-.303858-.165499-.264882-.219105-.218653-.265438-.165157-.304509-.10442-.336312-.036415-.360859v-28.496509l.011361-.203607.033615-.198516.05511-.191902.075884-.183763.095913-.174063.115207-.162837.133754-.15009.151583-.135778.166223-.118206.176197-.097588.184544-.076594.191238-.055202.196279-.033406.199678-.011225zm46.427594-.000521.196307.033366.191304.055148.184651.076555.17633.097587.166358.118233.151577.135792.133758.150103.115208.162864.095912.174076.075882.183763.055113.191901.033613.198503.011362.203554v28.497017l-.036361.360859-.10438.336312-.16513.304509-.218655.265438-.26488.219105-.303886.165499-.335606.10463-.360102.036477h-1.297384v-22.480578l-.023602-.466197-.069258-.452994-.112606-.437467-.153649-.419616-.192386-.399463-.228788-.376988-.262896-.3522-.294694-.325074-.324182-.295663-.351351-.263899-.376211-.229838-.398758-.193465-.41901-.154766-.436934-.113757-.45256-.070408-.465853-.024774-1.424433-.040169-.778167-.053424-.814367-.08059-.844692-.111485-.869183-.14608-.887813-.184419-.900614-.226444-.907562-.272211-.908655-.321666-.903907-.374863-.893303-.431762-.876866-.492388-.854573-.556715-.826435-.624759-.400838-.339065-.391611-.357478 1.341429.295142 1.345172.231909 1.343628.173127 1.336773.118807 1.32461.068978 1.307147.023585 1.284369-.017318 1.256302-.053784 1.222924-.085762 1.184245-.113289 1.140254-.136339 1.090958-.15494 1.036357-.169065.976459-.178739 1.751983-.368596.201267-.034235.201276-.011319z" fill="#f0f0f0" transform="matrix(1 0 0 -1 -2 46)"/></svg>